<svg width="512" height="512" viewBox="0 0 512 512" fill="none" xmlns="http://www.w3.org/2000/svg">
  <defs>
    <linearGradient id="g1" x1="80" y1="80" x2="432" y2="432" gradientUnits="userSpaceOnUse">
      <stop stop-color="#62C4FF"/>
      <stop offset="0.52" stop-color="#0B8DFF"/>
      <stop offset="1" stop-color="#7B61FF"/>
    </linearGradient>
    <linearGradient id="g2" x1="132" y1="96" x2="384" y2="416" gradientUnits="userSpaceOnUse">
      <stop stop-color="white"/>
      <stop offset="0.45" stop-color="#CDEEFF"/>
      <stop offset="1" stop-color="#7B61FF"/>
    </linearGradient>
    <filter id="glow" x="-40%" y="-40%" width="180%" height="180%">
      <feGaussianBlur stdDeviation="14" result="blur"/>
      <feColorMatrix in="blur" type="matrix" values="0 0 0 0 0.04 0 0 0 0 0.55 0 0 0 0 1 0 0 0 0.85 0"/>
      <feBlend in="SourceGraphic"/>
    </filter>
  </defs>
  <rect width="512" height="512" rx="116" fill="#071426"/>
  <path d="M76 112H178L256 214L334 112H436L309 256L436 400H334L256 298L178 400H76L203 256L76 112Z" fill="url(#g1)" filter="url(#glow)"/>
  <path d="M160 138H205L256 206L307 138H352L278 256L352 374H307L256 306L205 374H160L234 256L160 138Z" fill="url(#g2)" opacity="0.92"/>
  <path d="M96 122H172L236 206L205 236L96 122Z" fill="#62C4FF" opacity="0.58"/>
  <path d="M416 390H340L276 306L307 276L416 390Z" fill="#7B61FF" opacity="0.58"/>
</svg>
